<svg width="855" height="85" viewBox="0 0 855 85" fill="none" xmlns="http://www.w3.org/2000/svg">
<g filter="url(#filter0_d_15_23)">
<path d="M52.4922 76H4.49414V5.98047H52.4922V19.9941H18.5078V34.0078H41.5059V48.0215H18.5078V61.9863H52.4922V76ZM74.2207 76H60.8906V23.7051H64.1133L68.5078 28.7832C70.6562 26.8301 73.0814 25.3327 75.7832 24.291C78.5176 23.2168 81.3659 22.6797 84.3281 22.6797C87.5182 22.6797 90.5293 23.2982 93.3613 24.5352C96.1934 25.7396 98.6673 27.416 100.783 29.5645C102.899 31.6803 104.559 34.1706 105.764 37.0352C107.001 39.8672 107.619 42.8945 107.619 46.1172V76H94.2891V46.1172C94.2891 44.75 94.0286 43.4642 93.5078 42.2598C92.987 41.0228 92.2708 39.9486 91.3594 39.0371C90.4479 38.1257 89.39 37.4095 88.1855 36.8887C86.9811 36.3678 85.6953 36.1074 84.3281 36.1074C82.9284 36.1074 81.61 36.3678 80.373 36.8887C79.1361 37.4095 78.0618 38.1257 77.1504 39.0371C76.2389 39.9486 75.5228 41.0228 75.002 42.2598C74.4811 43.4642 74.2207 44.75 74.2207 46.1172V76ZM162.844 34.1055L153.078 43.9199C152.59 42.5527 151.923 41.332 151.076 40.2578C150.23 39.151 149.27 38.2233 148.195 37.4746C147.154 36.7259 146.014 36.1562 144.777 35.7656C143.54 35.375 142.271 35.1797 140.969 35.1797C139.146 35.1797 137.421 35.554 135.793 36.3027C134.198 37.0514 132.798 38.1094 131.594 39.4766C130.422 40.8112 129.494 42.4062 128.811 44.2617C128.127 46.1172 127.785 48.168 127.785 50.4141C127.785 52.237 128.127 53.946 128.811 55.541C129.494 57.1361 130.422 58.5358 131.594 59.7402C132.798 60.9447 134.198 61.8887 135.793 62.5723C137.421 63.2559 139.146 63.5977 140.969 63.5977C142.271 63.5977 143.524 63.4186 144.729 63.0605C145.933 62.7025 147.056 62.1979 148.098 61.5469C149.172 60.8633 150.116 60.0495 150.93 59.1055C151.776 58.1289 152.46 57.0547 152.98 55.8828L162.746 65.6973C161.509 67.4551 160.077 69.0339 158.449 70.4336C156.854 71.8333 155.113 73.0215 153.225 73.998C151.369 74.9746 149.4 75.707 147.316 76.1953C145.266 76.7161 143.15 76.9766 140.969 76.9766C137.29 76.9766 133.824 76.293 130.568 74.9258C127.346 73.526 124.514 71.6217 122.072 69.2129C119.663 66.804 117.759 63.9883 116.359 60.7656C114.96 57.543 114.26 54.0924 114.26 50.4141C114.26 46.4102 114.96 42.6667 116.359 39.1836C117.759 35.7005 119.663 32.6732 122.072 30.1016C124.514 27.4974 127.346 25.4466 130.568 23.9492C133.824 22.4518 137.29 21.7031 140.969 21.7031C143.15 21.7031 145.282 21.9798 147.365 22.5332C149.481 23.0866 151.483 23.9004 153.371 24.9746C155.292 26.0163 157.049 27.3021 158.645 28.832C160.272 30.362 161.672 32.1198 162.844 34.1055ZM219.24 76H216.018L210.842 68.8223C209.572 69.9616 208.221 71.0358 206.789 72.0449C205.389 73.0215 203.908 73.8841 202.346 74.6328C200.783 75.349 199.172 75.9186 197.512 76.3418C195.884 76.765 194.224 76.9766 192.531 76.9766C188.853 76.9766 185.386 76.3581 182.131 75.1211C178.908 73.8841 176.076 72.0938 173.635 69.75C171.226 67.3737 169.322 64.4766 167.922 61.0586C166.522 57.6406 165.822 53.7507 165.822 49.3887C165.822 45.3197 166.522 41.5924 167.922 38.207C169.322 34.7891 171.226 31.8594 173.635 29.418C176.076 26.9766 178.908 25.0885 182.131 23.7539C185.386 22.3867 188.853 21.7031 192.531 21.7031C194.224 21.7031 195.9 21.9147 197.561 22.3379C199.221 22.7611 200.832 23.347 202.395 24.0957C203.957 24.8444 205.438 25.7233 206.838 26.7324C208.27 27.7415 209.605 28.832 210.842 30.0039L216.018 23.8027H219.24V76ZM205.812 49.3887C205.812 47.5658 205.454 45.8079 204.738 44.1152C204.055 42.39 203.111 40.8763 201.906 39.5742C200.702 38.2396 199.286 37.1816 197.658 36.4004C196.063 35.5866 194.354 35.1797 192.531 35.1797C190.708 35.1797 188.983 35.4889 187.355 36.1074C185.76 36.7259 184.361 37.6374 183.156 38.8418C181.984 40.0462 181.057 41.5436 180.373 43.334C179.689 45.0918 179.348 47.11 179.348 49.3887C179.348 51.6673 179.689 53.7018 180.373 55.4922C181.057 57.25 181.984 58.7311 183.156 59.9355C184.361 61.14 185.76 62.0514 187.355 62.6699C188.983 63.2884 190.708 63.5977 192.531 63.5977C194.354 63.5977 196.063 63.207 197.658 62.4258C199.286 61.612 200.702 60.554 201.906 59.252C203.111 57.9173 204.055 56.4036 204.738 54.7109C205.454 52.9857 205.812 51.2116 205.812 49.3887ZM242.775 76H229.445V23.7051H232.668L237.062 28.7832C239.211 26.8301 241.636 25.3327 244.338 24.291C247.072 23.2168 249.921 22.6797 252.883 22.6797C256.073 22.6797 259.084 23.2982 261.916 24.5352C264.748 25.7396 267.222 27.416 269.338 29.5645C271.454 31.6803 273.114 34.1706 274.318 37.0352C275.555 39.8672 276.174 42.8945 276.174 46.1172V76H262.844V46.1172C262.844 44.75 262.583 43.4642 262.062 42.2598C261.542 41.0228 260.826 39.9486 259.914 39.0371C259.003 38.1257 257.945 37.4095 256.74 36.8887C255.536 36.3678 254.25 36.1074 252.883 36.1074C251.483 36.1074 250.165 36.3678 248.928 36.8887C247.691 37.4095 246.617 38.1257 245.705 39.0371C244.794 39.9486 244.077 41.0228 243.557 42.2598C243.036 43.4642 242.775 44.75 242.775 46.1172V76ZM311.232 76C308.01 76 304.982 75.3978 302.15 74.1934C299.318 72.9564 296.828 71.2799 294.68 69.1641C292.564 67.0156 290.887 64.5254 289.65 61.6934C288.446 58.8613 287.844 55.834 287.844 52.6113V37.084H281.35V23.8027H287.844V2.9043H301.125V23.8027H321.34V37.084H301.125V52.6113C301.125 54.0111 301.385 55.3294 301.906 56.5664C302.427 57.7708 303.143 58.8288 304.055 59.7402C304.966 60.6517 306.04 61.3841 307.277 61.9375C308.514 62.4583 309.833 62.7188 311.232 62.7188H321.34V76H311.232ZM379.396 49.3887C379.396 53.2949 378.697 56.9408 377.297 60.3262C375.897 63.679 373.993 66.5924 371.584 69.0664C369.175 71.5078 366.343 73.4447 363.088 74.877C359.865 76.2767 356.398 76.9766 352.688 76.9766C349.009 76.9766 345.542 76.2767 342.287 74.877C339.064 73.4447 336.232 71.5078 333.791 69.0664C331.382 66.5924 329.478 63.679 328.078 60.3262C326.678 56.9408 325.979 53.2949 325.979 49.3887C325.979 45.4173 326.678 41.7389 328.078 38.3535C329.478 34.9681 331.382 32.0547 333.791 29.6133C336.232 27.1393 339.064 25.2025 342.287 23.8027C345.542 22.403 349.009 21.7031 352.688 21.7031C356.398 21.7031 359.865 22.3704 363.088 23.7051C366.343 25.0072 369.175 26.8789 371.584 29.3203C373.993 31.7292 375.897 34.6426 377.297 38.0605C378.697 41.446 379.396 45.222 379.396 49.3887ZM365.969 49.3887C365.969 47.2402 365.611 45.3034 364.895 43.5781C364.211 41.8203 363.267 40.3229 362.062 39.0859C360.858 37.8164 359.442 36.8561 357.814 36.2051C356.219 35.5215 354.51 35.1797 352.688 35.1797C350.865 35.1797 349.139 35.5215 347.512 36.2051C345.917 36.8561 344.517 37.8164 343.312 39.0859C342.141 40.3229 341.213 41.8203 340.529 43.5781C339.846 45.3034 339.504 47.2402 339.504 49.3887C339.504 51.4069 339.846 53.2786 340.529 55.0039C341.213 56.7292 342.141 58.2266 343.312 59.4961C344.517 60.7656 345.917 61.7747 347.512 62.5234C349.139 63.2396 350.865 63.5977 352.688 63.5977C354.51 63.5977 356.219 63.2559 357.814 62.5723C359.442 61.8887 360.858 60.9284 362.062 59.6914C363.267 58.4544 364.211 56.957 364.895 55.1992C365.611 53.4414 365.969 51.5046 365.969 49.3887ZM465.334 76H462.111L456.936 68.8223C455.666 69.9616 454.315 71.0358 452.883 72.0449C451.483 73.0215 450.002 73.8841 448.439 74.6328C446.877 75.349 445.266 75.9186 443.605 76.3418C441.978 76.765 440.318 76.9766 438.625 76.9766C434.947 76.9766 431.48 76.293 428.225 74.9258C425.002 73.526 422.17 71.6055 419.729 69.1641C417.32 66.6901 415.415 63.7767 414.016 60.4238C412.616 57.0384 411.916 53.36 411.916 49.3887C411.916 45.4499 412.616 41.7878 414.016 38.4023C415.415 35.0169 417.32 32.0872 419.729 29.6133C422.17 27.1393 425.002 25.2025 428.225 23.8027C431.48 22.403 434.947 21.7031 438.625 21.7031C439.797 21.7031 441.001 21.8008 442.238 21.9961C443.508 22.1914 444.729 22.5169 445.9 22.9727C447.105 23.3958 448.228 23.9655 449.27 24.6816C450.311 25.3978 451.19 26.2767 451.906 27.3184V2.9043H465.334V76ZM451.906 49.3887C451.906 47.5658 451.548 45.8079 450.832 44.1152C450.148 42.39 449.204 40.8763 448 39.5742C446.796 38.2396 445.38 37.1816 443.752 36.4004C442.157 35.5866 440.448 35.1797 438.625 35.1797C436.802 35.1797 435.077 35.5052 433.449 36.1562C431.854 36.8073 430.454 37.7513 429.25 38.9883C428.078 40.1927 427.15 41.6738 426.467 43.4316C425.783 45.1895 425.441 47.1751 425.441 49.3887C425.441 51.3092 425.783 53.1322 426.467 54.8574C427.15 56.5827 428.078 58.0964 429.25 59.3984C430.454 60.7005 431.854 61.7259 433.449 62.4746C435.077 63.2233 436.802 63.5977 438.625 63.5977C440.448 63.5977 442.157 63.207 443.752 62.4258C445.38 61.612 446.796 60.554 448 59.252C449.204 57.9173 450.148 56.4036 450.832 54.7109C451.548 52.9857 451.906 51.2116 451.906 49.3887ZM496.34 63.207C496.861 63.3698 497.382 63.4837 497.902 63.5488C498.423 63.5814 498.944 63.5977 499.465 63.5977C500.767 63.5977 502.02 63.4186 503.225 63.0605C504.429 62.7025 505.552 62.1979 506.594 61.5469C507.668 60.8633 508.612 60.0495 509.426 59.1055C510.272 58.1289 510.956 57.0547 511.477 55.8828L521.242 65.6973C520.005 67.4551 518.573 69.0339 516.945 70.4336C515.35 71.8333 513.609 73.0215 511.721 73.998C509.865 74.9746 507.896 75.707 505.812 76.1953C503.762 76.7161 501.646 76.9766 499.465 76.9766C495.786 76.9766 492.32 76.293 489.064 74.9258C485.842 73.5586 483.01 71.6543 480.568 69.2129C478.16 66.7715 476.255 63.8743 474.855 60.5215C473.456 57.1361 472.756 53.4251 472.756 49.3887C472.756 45.2546 473.456 41.4785 474.855 38.0605C476.255 34.6426 478.16 31.7292 480.568 29.3203C483.01 26.9115 485.842 25.0397 489.064 23.7051C492.32 22.3704 495.786 21.7031 499.465 21.7031C501.646 21.7031 503.778 21.9635 505.861 22.4844C507.945 23.0052 509.914 23.7539 511.77 24.7305C513.658 25.707 515.415 26.9115 517.043 28.3438C518.671 29.7435 520.103 31.3223 521.34 33.0801L496.34 63.207ZM503.176 35.7168C502.557 35.4889 501.939 35.3424 501.32 35.2773C500.734 35.2122 500.116 35.1797 499.465 35.1797C497.642 35.1797 495.917 35.5215 494.289 36.2051C492.694 36.8561 491.294 37.8001 490.09 39.0371C488.918 40.2741 487.99 41.7715 487.307 43.5293C486.623 45.2546 486.281 47.2077 486.281 49.3887C486.281 49.877 486.298 50.4303 486.33 51.0488C486.395 51.6673 486.477 52.3021 486.574 52.9531C486.704 53.5716 486.851 54.1738 487.014 54.7598C487.176 55.3457 487.388 55.8665 487.648 56.3223L503.176 35.7168ZM606.643 49.3887C606.643 53.2949 605.943 56.9408 604.543 60.3262C603.143 63.679 601.239 66.5924 598.83 69.0664C596.421 71.5078 593.589 73.4447 590.334 74.877C587.111 76.2767 583.645 76.9766 579.934 76.9766C576.255 76.9766 572.788 76.2767 569.533 74.877C566.311 73.4447 563.479 71.5078 561.037 69.0664C558.628 66.5924 556.724 63.679 555.324 60.3262C553.924 56.9408 553.225 53.2949 553.225 49.3887C553.225 45.4173 553.924 41.7389 555.324 38.3535C556.724 34.9681 558.628 32.0547 561.037 29.6133C563.479 27.1393 566.311 25.2025 569.533 23.8027C572.788 22.403 576.255 21.7031 579.934 21.7031C583.645 21.7031 587.111 22.3704 590.334 23.7051C593.589 25.0072 596.421 26.8789 598.83 29.3203C601.239 31.7292 603.143 34.6426 604.543 38.0605C605.943 41.446 606.643 45.222 606.643 49.3887ZM593.215 49.3887C593.215 47.2402 592.857 45.3034 592.141 43.5781C591.457 41.8203 590.513 40.3229 589.309 39.0859C588.104 37.8164 586.688 36.8561 585.061 36.2051C583.465 35.5215 581.757 35.1797 579.934 35.1797C578.111 35.1797 576.385 35.5215 574.758 36.2051C573.163 36.8561 571.763 37.8164 570.559 39.0859C569.387 40.3229 568.459 41.8203 567.775 43.5781C567.092 45.3034 566.75 47.2402 566.75 49.3887C566.75 51.4069 567.092 53.2786 567.775 55.0039C568.459 56.7292 569.387 58.2266 570.559 59.4961C571.763 60.7656 573.163 61.7747 574.758 62.5234C576.385 63.2396 578.111 63.5977 579.934 63.5977C581.757 63.5977 583.465 63.2559 585.061 62.5723C586.688 61.8887 588.104 60.9284 589.309 59.6914C590.513 58.4544 591.457 56.957 592.141 55.1992C592.857 53.4414 593.215 51.5046 593.215 49.3887ZM642.727 76H612.258V62.7188H642.727C643.638 62.7188 644.419 62.3932 645.07 61.7422C645.721 61.0911 646.047 60.3099 646.047 59.3984C646.047 58.4544 645.721 57.8359 645.07 57.543C644.419 57.25 643.638 57.1035 642.727 57.1035H628.859C626.548 57.1035 624.383 56.6641 622.365 55.7852C620.347 54.9062 618.589 53.7181 617.092 52.2207C615.594 50.6908 614.406 48.9167 613.527 46.8984C612.681 44.8802 612.258 42.7155 612.258 40.4043C612.258 38.0931 612.681 35.9284 613.527 33.9102C614.406 31.8919 615.594 30.1341 617.092 28.6367C618.589 27.1393 620.347 25.9674 622.365 25.1211C624.383 24.2422 626.548 23.8027 628.859 23.8027H655.861V37.084H628.859C627.948 37.084 627.167 37.4095 626.516 38.0605C625.865 38.7116 625.539 39.4928 625.539 40.4043C625.539 41.3483 625.865 42.1621 626.516 42.8457C627.167 43.4967 627.948 43.8223 628.859 43.8223H642.727C645.005 43.8223 647.154 44.2129 649.172 44.9941C651.19 45.7428 652.948 46.8008 654.445 48.168C655.943 49.5352 657.131 51.179 658.01 53.0996C658.889 55.0202 659.328 57.1198 659.328 59.3984C659.328 61.7096 658.889 63.8743 658.01 65.8926C657.131 67.8783 655.943 69.6361 654.445 71.166C652.948 72.6634 651.19 73.8516 649.172 74.7305C647.154 75.5768 645.005 76 642.727 76ZM695.168 76H664.699V62.7188H695.168C696.079 62.7188 696.861 62.3932 697.512 61.7422C698.163 61.0911 698.488 60.3099 698.488 59.3984C698.488 58.4544 698.163 57.8359 697.512 57.543C696.861 57.25 696.079 57.1035 695.168 57.1035H681.301C678.99 57.1035 676.825 56.6641 674.807 55.7852C672.788 54.9062 671.031 53.7181 669.533 52.2207C668.036 50.6908 666.848 48.9167 665.969 46.8984C665.122 44.8802 664.699 42.7155 664.699 40.4043C664.699 38.0931 665.122 35.9284 665.969 33.9102C666.848 31.8919 668.036 30.1341 669.533 28.6367C671.031 27.1393 672.788 25.9674 674.807 25.1211C676.825 24.2422 678.99 23.8027 681.301 23.8027H708.303V37.084H681.301C680.389 37.084 679.608 37.4095 678.957 38.0605C678.306 38.7116 677.98 39.4928 677.98 40.4043C677.98 41.3483 678.306 42.1621 678.957 42.8457C679.608 43.4967 680.389 43.8223 681.301 43.8223H695.168C697.447 43.8223 699.595 44.2129 701.613 44.9941C703.632 45.7428 705.389 46.8008 706.887 48.168C708.384 49.5352 709.572 51.179 710.451 53.0996C711.33 55.0202 711.77 57.1198 711.77 59.3984C711.77 61.7096 711.33 63.8743 710.451 65.8926C709.572 67.8783 708.384 69.6361 706.887 71.166C705.389 72.6634 703.632 73.8516 701.613 74.7305C699.595 75.5768 697.447 76 695.168 76ZM769.533 76H766.311L761.135 68.8223C759.865 69.9616 758.514 71.0358 757.082 72.0449C755.682 73.0215 754.201 73.8841 752.639 74.6328C751.076 75.349 749.465 75.9186 747.805 76.3418C746.177 76.765 744.517 76.9766 742.824 76.9766C739.146 76.9766 735.679 76.3581 732.424 75.1211C729.201 73.8841 726.369 72.0938 723.928 69.75C721.519 67.3737 719.615 64.4766 718.215 61.0586C716.815 57.6406 716.115 53.7507 716.115 49.3887C716.115 45.3197 716.815 41.5924 718.215 38.207C719.615 34.7891 721.519 31.8594 723.928 29.418C726.369 26.9766 729.201 25.0885 732.424 23.7539C735.679 22.3867 739.146 21.7031 742.824 21.7031C744.517 21.7031 746.193 21.9147 747.854 22.3379C749.514 22.7611 751.125 23.347 752.688 24.0957C754.25 24.8444 755.731 25.7233 757.131 26.7324C758.563 27.7415 759.898 28.832 761.135 30.0039L766.311 23.8027H769.533V76ZM756.105 49.3887C756.105 47.5658 755.747 45.8079 755.031 44.1152C754.348 42.39 753.404 40.8763 752.199 39.5742C750.995 38.2396 749.579 37.1816 747.951 36.4004C746.356 35.5866 744.647 35.1797 742.824 35.1797C741.001 35.1797 739.276 35.4889 737.648 36.1074C736.053 36.7259 734.654 37.6374 733.449 38.8418C732.277 40.0462 731.35 41.5436 730.666 43.334C729.982 45.0918 729.641 47.11 729.641 49.3887C729.641 51.6673 729.982 53.7018 730.666 55.4922C731.35 57.25 732.277 58.7311 733.449 59.9355C734.654 61.14 736.053 62.0514 737.648 62.6699C739.276 63.2884 741.001 63.5977 742.824 63.5977C744.647 63.5977 746.356 63.207 747.951 62.4258C749.579 61.612 750.995 60.554 752.199 59.252C753.404 57.9173 754.348 56.4036 755.031 54.7109C755.747 52.9857 756.105 51.2116 756.105 49.3887ZM795.461 9.49609C795.461 10.7331 795.217 11.8887 794.729 12.9629C794.273 14.0371 793.638 14.9811 792.824 15.7949C792.01 16.5762 791.05 17.2109 789.943 17.6992C788.869 18.1549 787.714 18.3828 786.477 18.3828C785.24 18.3828 784.068 18.1549 782.961 17.6992C781.887 17.2109 780.943 16.5762 780.129 15.7949C779.348 14.9811 778.713 14.0371 778.225 12.9629C777.769 11.8887 777.541 10.7331 777.541 9.49609C777.541 8.29167 777.769 7.15234 778.225 6.07812C778.713 4.97135 779.348 4.02734 780.129 3.24609C780.943 2.43229 781.887 1.79753 782.961 1.3418C784.068 0.853516 785.24 0.609375 786.477 0.609375C787.714 0.609375 788.869 0.853516 789.943 1.3418C791.05 1.79753 792.01 2.43229 792.824 3.24609C793.638 4.02734 794.273 4.97135 794.729 6.07812C795.217 7.15234 795.461 8.29167 795.461 9.49609ZM793.166 76H779.738V23.7051H793.166V76ZM816.701 76H803.371V23.7051H806.594L810.988 28.7832C813.137 26.8301 815.562 25.3327 818.264 24.291C820.998 23.2168 823.846 22.6797 826.809 22.6797C829.999 22.6797 833.01 23.2982 835.842 24.5352C838.674 25.7396 841.148 27.416 843.264 29.5645C845.38 31.6803 847.04 34.1706 848.244 37.0352C849.481 39.8672 850.1 42.8945 850.1 46.1172V76H836.77V46.1172C836.77 44.75 836.509 43.4642 835.988 42.2598C835.467 41.0228 834.751 39.9486 833.84 39.0371C832.928 38.1257 831.87 37.4095 830.666 36.8887C829.462 36.3678 828.176 36.1074 826.809 36.1074C825.409 36.1074 824.09 36.3678 822.854 36.8887C821.617 37.4095 820.542 38.1257 819.631 39.0371C818.719 39.9486 818.003 41.0228 817.482 42.2598C816.962 43.4642 816.701 44.75 816.701 46.1172V76Z" fill="#8FF2A5"/>
</g>
<defs>
<filter id="filter0_d_15_23" x="0.494141" y="0.609375" width="853.605" height="84.3672" filterUnits="userSpaceOnUse" color-interpolation-filters="sRGB">
<feFlood flood-opacity="0" result="BackgroundImageFix"/>
<feColorMatrix in="SourceAlpha" type="matrix" values="0 0 0 0 0 0 0 0 0 0 0 0 0 0 0 0 0 0 127 0" result="hardAlpha"/>
<feOffset dy="4"/>
<feGaussianBlur stdDeviation="2"/>
<feComposite in2="hardAlpha" operator="out"/>
<feColorMatrix type="matrix" values="0 0 0 0 0 0 0 0 0 0 0 0 0 0 0 0 0 0 0.25 0"/>
<feBlend mode="normal" in2="BackgroundImageFix" result="effect1_dropShadow_15_23"/>
<feBlend mode="normal" in="SourceGraphic" in2="effect1_dropShadow_15_23" result="shape"/>
</filter>
</defs>
</svg>
